<svg width="202" height="64" viewBox="0 0 202 64" fill="none" xmlns="http://www.w3.org/2000/svg">
<path d="M34.4 0.799805H20.8L0.5 50.4998H14.1L34.4 0.799805Z" fill="#FFB71B"/>
<path d="M37.5031 2.3999L30.7031 19.0999L43.6031 50.4999H58.0031L37.5031 2.3999Z" fill="white"/>
<path d="M82.6 15.0996C80.2 15.0996 78 15.5996 76 16.5996C74.1 17.5996 72.5 18.9996 71.3 20.8996V15.9996H61V50.4996H71.6V31.1996C71.6 28.8996 72.3 26.9996 73.6 25.5996C74.9 24.1996 76.7 23.4996 78.9 23.4996C80.7 23.4996 82.1 23.9996 82.9 25.0996C83.8 26.1996 84.2 27.8996 84.2 30.1996V50.4996H94.8V29.6996C94.8 24.7996 93.8 21.1996 91.8 18.7996C89.8 16.2996 86.7 15.0996 82.6 15.0996Z" fill="white"/>
<path d="M120.3 30.1997L114.5 28.8997C113.1 28.4997 112.1 28.0997 111.5 27.6997C110.9 27.2997 110.7 26.6997 110.7 25.8997C110.7 24.8997 111.2 24.0997 112.1 23.4997C113 22.8997 114.3 22.6997 116 22.6997C119.6 22.6997 123.2 23.9997 126.8 26.4997L129.6 19.4997C127.7 18.0997 125.6 17.0997 123.3 16.2997C121 15.5997 118.5 15.1997 116.1 15.1997C113.2 15.1997 110.6 15.6997 108.3 16.5997C106 17.4997 104.3 18.7997 103 20.4997C101.8 22.0997 101.1 23.9997 101.1 26.1997C101.1 28.8997 101.9 31.0997 103.5 32.5997C105.1 34.1997 107.5 35.2997 110.9 36.0997L116.5 37.3997C118.2 37.7997 119.4 38.1997 120.1 38.6997C120.7 39.1997 121 39.7997 121 40.6997C121 41.5997 120.5 42.3997 119.6 42.8997C118.7 43.3997 117.4 43.6997 115.8 43.6997C113.5 43.6997 111.2 43.2997 109 42.5997C106.8 41.8997 104.7 40.8997 102.8 39.5997L100 46.8997C101.9 48.2997 104.2 49.2997 106.9 49.9997C109.5 50.6997 112.5 51.0997 115.7 51.0997C120.3 51.0997 124 50.1997 126.6 48.2997C129.2 46.3997 130.6 43.7997 130.6 40.4997C130.6 37.6997 129.8 35.4997 128.2 33.8997C126.3 32.1997 123.8 30.9997 120.3 30.1997Z" fill="white"/>
<path d="M198.702 33.7997C197.102 32.1997 194.502 30.9997 191.002 30.1997L185.202 28.8997C183.802 28.4997 182.802 28.0997 182.202 27.6997C181.602 27.2997 181.402 26.6997 181.402 25.8997C181.402 24.8997 181.902 24.0997 182.802 23.4997C183.702 22.8997 185.002 22.6997 186.702 22.6997C190.302 22.6997 193.902 23.9997 197.502 26.4997L200.302 19.4997C198.402 18.0997 196.302 17.0997 194.002 16.2997C191.702 15.5997 189.202 15.1997 186.802 15.1997C183.902 15.1997 181.302 15.6997 179.002 16.5997C176.702 17.4997 175.002 18.7997 173.702 20.4997C172.502 22.0997 171.802 23.9997 171.802 26.1997C171.802 28.8997 172.602 31.0997 174.202 32.5997C175.802 34.1997 178.202 35.2997 181.502 36.0997L187.102 37.3997C188.802 37.7997 190.002 38.1997 190.702 38.6997C191.302 39.1997 191.602 39.7997 191.602 40.6997C191.602 41.5997 191.102 42.3997 190.202 42.8997C189.302 43.3997 188.002 43.6997 186.402 43.6997C184.102 43.6997 181.802 43.2997 179.602 42.5997C177.302 41.8997 175.302 40.8997 173.402 39.5997L170.602 46.8997C172.502 48.2997 174.802 49.2997 177.502 49.9997C180.102 50.6997 183.102 51.0997 186.302 51.0997C190.902 51.0997 194.602 50.1997 197.202 48.2997C199.802 46.3997 201.202 43.7997 201.202 40.4997C201.102 37.5997 200.302 35.3997 198.702 33.7997Z" fill="white"/>
<path d="M159.697 16L151.397 36.3L143.097 16H132.797L146.197 48.8L140.397 63.2H150.597L169.897 16H159.697Z" fill="white"/>
</svg>
